<svg xmlns="http://www.w3.org/2000/svg" xmlns:xlink="http://www.w3.org/1999/xlink" viewBox="180.1636 152.3885 961.6993 293.9157" width="417" height="127.44404295604666" x="41.5px" y="186.278px" preserveAspectRatio="none"><defs/><style>.companyName-floo6fef1a27-fb72-463e-8552-d52f6c12b13b {flood-color:#FFFFFF;flood-opacity:1;}.companyName6fef1a27-fb72-463e-8552-d52f6c12b13b {fill:#FFFFFF;fill-opacity:1;}.icon3-floo6fef1a27-fb72-463e-8552-d52f6c12b13b {flood-color:#2317FF;flood-opacity:1;}.icon3-str6fef1a27-fb72-463e-8552-d52f6c12b13b {stroke:#2317FF;stroke-opacity:1;}.icon36fef1a27-fb72-463e-8552-d52f6c12b13b {fill:#2317FF;fill-opacity:1;}.shape-floo6fef1a27-fb72-463e-8552-d52f6c12b13b {flood-color:#FF8000;flood-opacity:1;}</style><defs>
      <filter x="183.1636" y="152.3885" width="955.6993" height="267.8356" id="6fef1a27-fb72-463e-8552-d52f6c12b13bRWrrEA-PR" filterUnits="userSpaceOnUse" primitiveUnits="userSpaceOnUse" color-interpolation-filters="sRGB">
        
    <feGaussianBlur in="SourceGraphic" stdDeviation="6"/>
    <feOffset dx="0" dy="-6.697841003830108" result="D8TGTMOyPwH"/>
    <feFlood flood-color="#2317FF" flood-opacity="1" in="D8TGTMOyPwH"/>
    <feComposite in2="D8TGTMOyPwH" operator="in" result="EJzoC0iQ3cs"/><feMerge result="pmmIQ0t-15c"><feMergeNode in="EJzoC0iQ3cs"/><feMergeNode in="SourceGraphic"/></feMerge><feGaussianBlur result="LF6nBi5uJw9" stdDeviation="7"/>
      </filter>
      <filter x="180.1636" y="172.4686" width="961.6993" height="273.8356" id="6fef1a27-fb72-463e-8552-d52f6c12b13bikYEXSHZT" filterUnits="userSpaceOnUse" primitiveUnits="userSpaceOnUse" color-interpolation-filters="sRGB">
        
    <feGaussianBlur in="SourceGraphic" stdDeviation="7"/>
    <feOffset dx="0" dy="6.890608403721125" result="mhprtjCDYqS"/>
    <feFlood flood-color="#FF8000" flood-opacity="1" in="mhprtjCDYqS"/>
    <feComposite in2="mhprtjCDYqS" operator="in" result="iGEbgL8C355"/><feMerge result="haX9b-cxjK4"><feMergeNode in="iGEbgL8C355"/><feMergeNode in="SourceGraphic"/></feMerge><feGaussianBlur result="ycSAWFVLZen" stdDeviation="7"/>
      </filter>
      <filter x="204.1636" y="180.0863" width="913.6993" height="225.8356" id="6fef1a27-fb72-463e-8552-d52f6c12b13btUk6sjh6M" filterUnits="userSpaceOnUse" primitiveUnits="userSpaceOnUse" color-interpolation-filters="sRGB">
        
    <feGaussianBlur in="SourceGraphic" stdDeviation="6"/>
    <feOffset dx="0" dy="0" result="c-ocaPR01kJ"/>
    <feFlood flood-color="#FFFFFF" flood-opacity="1" in="c-ocaPR01kJ"/>
    <feComposite in2="c-ocaPR01kJ" operator="in" result="kDaLT68hhCp"/><feMerge result="a8fWWPRfliRb"><feMergeNode in="kDaLT68hhCp"/><feMergeNode in="SourceGraphic"/></feMerge>
      </filter></defs><g filter="url(#6fef1a27-fb72-463e-8552-d52f6c12b13bRWrrEA-PR)"><g opacity="1" transform="rotate(0 222.1636 198.0863)">
<svg width="877.6993" height="189.8356" x="222.1636" y="198.0863" version="1.1" preserveAspectRatio="none" viewBox="4.3359 -30.5273 184.66799999999998 39.9414">
  <g transform="matrix(1 0 0 1 0 0)" class="icon36fef1a27-fb72-463e-8552-d52f6c12b13b"><path id="id-6fef1a27-fb72-463e-8552-d52f6c12b13bKYFLWsHjp6" d="M4.34 0L4.34-30.53L30.33-30.53L30.33-25.10L10.53-25.10L10.53-19.00L28.07-19.00L28.07-13.91L10.53-13.91L10.53-5.41L30.74-5.41L30.74 0L4.34 0Z M37.31-2.70L39.81-7.07Q42.16-5.66 44.97-5Q47.78-4.34 50.73-4.34L50.73-4.34Q52.72-4.34 54.05-4.61Q55.38-4.88 56.18-5.31Q56.98-5.74 57.31-6.29Q57.64-6.84 57.64-7.40L57.64-7.40Q57.64-8.22 56.93-8.81Q56.22-9.39 54.58-9.39L54.58-9.39Q53.82-9.39 52.94-9.30Q52.06-9.20 51.09-9.09Q50.13-8.98 49.08-8.89Q48.04-8.79 46.96-8.79L46.96-8.79Q44.62-8.79 42.97-9.30Q41.32-9.80 40.28-10.68Q39.25-11.56 38.78-12.76Q38.31-13.96 38.31-15.35L38.31-15.35Q38.31-17.11 39.13-18.59Q39.95-20.08 41.47-21.16Q43.00-22.25 45.15-22.85Q47.31-23.46 49.97-23.46L49.97-23.46Q51.36-23.46 52.87-23.29Q54.38-23.13 55.85-22.85Q57.31-22.58 58.66-22.22Q60.01-21.86 61.04-21.45L61.04-21.45L59.23-16.95Q57.02-17.77 54.82-18.25Q52.63-18.73 50.30-18.73L50.30-18.73Q48.68-18.73 47.56-18.49Q46.43-18.24 45.73-17.84Q45.03-17.44 44.71-16.92Q44.38-16.41 44.38-15.84L44.38-15.84Q44.38-15.43 44.55-15.10Q44.71-14.77 45.10-14.52Q45.48-14.28 46.09-14.15Q46.71-14.02 47.61-14.02L47.61-14.02Q48.43-14.02 49.34-14.12Q50.26-14.22 51.26-14.33Q52.25-14.43 53.32-14.53Q54.38-14.63 55.50-14.63L55.50-14.63Q57.57-14.63 59.12-14.14Q60.67-13.65 61.69-12.77Q62.70-11.89 63.21-10.70Q63.72-9.51 63.72-8.11L63.72-8.11Q63.72-6.29 62.88-4.73Q62.04-3.16 60.38-2.02Q58.72-0.88 56.25-0.23Q53.78 0.41 50.54 0.41L50.54 0.41Q48.54 0.41 46.69 0.17Q44.83-0.08 43.15-0.50Q41.47-0.92 40.00-1.48Q38.52-2.05 37.31-2.70L37.31-2.70Z M74.39 0L74.39-18.71L68.82-18.71L68.82-23.05L74.39-23.05L74.39-30.21L80.17-30.21L80.17-23.05L85.74-23.05L85.74-18.71L80.17-18.71L80.17 0L74.39 0Z M91.49-11.52L91.49-11.52Q91.49-14.00 92.49-16.17Q93.50-18.34 95.37-19.96Q97.23-21.58 99.88-22.52Q102.52-23.46 105.82-23.46L105.82-23.46Q109.13-23.46 111.77-22.52Q114.42-21.58 116.28-19.96Q118.15-18.34 119.15-16.17Q120.16-14.00 120.16-11.52L120.16-11.52Q120.16-9.04 119.15-6.88Q118.15-4.71 116.28-3.09Q114.42-1.46 111.77-0.53Q109.13 0.41 105.82 0.41L105.82 0.41Q102.52 0.41 99.88-0.53Q97.23-1.46 95.37-3.09Q93.50-4.71 92.49-6.88Q91.49-9.04 91.49-11.52ZM97.56-11.52L97.56-11.52Q97.56-10.14 98.12-8.90Q98.68-7.66 99.74-6.71Q100.80-5.76 102.34-5.21Q103.87-4.65 105.82-4.65L105.82-4.65Q107.78-4.65 109.31-5.21Q110.84-5.76 111.91-6.71Q112.97-7.66 113.53-8.90Q114.09-10.14 114.09-11.52L114.09-11.52Q114.09-12.91 113.53-14.16Q112.97-15.41 111.91-16.36Q110.84-17.30 109.31-17.86Q107.78-18.42 105.82-18.42L105.82-18.42Q103.87-18.42 102.34-17.86Q100.80-17.30 99.74-16.36Q98.68-15.41 98.12-14.16Q97.56-12.91 97.56-11.52Z M133.63-1.66L133.63 9.41L127.84 9.41L127.84-23.05L133.63-23.05L133.63-20.88Q134.39-21.41 135.42-21.88Q136.46-22.34 137.65-22.70Q138.84-23.05 140.11-23.25Q141.38-23.46 142.65-23.46L142.65-23.46Q145.58-23.46 148.03-22.60Q150.48-21.74 152.24-20.18Q154.00-18.61 154.98-16.44Q155.97-14.26 155.97-11.62L155.97-11.62Q155.97-8.87 154.93-6.65Q153.90-4.43 152.07-2.86Q150.25-1.29 147.74-0.44Q145.23 0.41 142.30 0.41L142.30 0.41Q141.05 0.41 139.83 0.25Q138.61 0.10 137.48-0.18Q136.36-0.45 135.37-0.83Q134.39-1.21 133.63-1.66L133.63-1.66ZM133.63-15.23L133.63-7.25Q134.50-6.54 135.48-6.05Q136.46-5.57 137.47-5.25Q138.49-4.94 139.52-4.79Q140.56-4.65 141.54-4.65L141.54-4.65Q143.53-4.65 145.08-5.19Q146.63-5.72 147.70-6.66Q148.76-7.60 149.33-8.87Q149.89-10.14 149.89-11.62L149.89-11.62Q149.89-13.01 149.34-14.24Q148.78-15.47 147.74-16.40Q146.69-17.32 145.22-17.86Q143.74-18.40 141.91-18.40L141.91-18.40Q140.73-18.40 139.56-18.17Q138.39-17.95 137.31-17.54Q136.22-17.13 135.28-16.54Q134.33-15.96 133.63-15.23L133.63-15.23Z M162.32-7.27L162.32-7.27Q162.32-8.93 163.05-10.29Q163.77-11.66 165.21-12.65Q166.66-13.63 168.82-14.17Q170.98-14.71 173.85-14.71L173.85-14.71Q175.98-14.71 178.33-14.39Q180.68-14.08 183.18-13.44L183.18-13.44Q183.09-14.53 182.52-15.46Q181.95-16.39 180.95-17.06Q179.94-17.73 178.53-18.11Q177.11-18.48 175.31-18.48L175.31-18.48Q174.34-18.48 173.16-18.36Q171.99-18.24 170.74-18.01Q169.49-17.77 168.27-17.42Q167.05-17.07 166.00-16.58L166.00-16.58L164.24-21.33Q165.55-21.80 167.04-22.19Q168.54-22.58 170.10-22.86Q171.66-23.14 173.22-23.30Q174.79-23.46 176.25-23.46L176.25-23.46Q182.71-23.46 185.86-20.16Q189.00-16.86 189.00-10.04L189.00-10.04L189.00 0L183.22 0L183.22-2.17Q182.32-1.64 181.26-1.17Q180.20-0.70 178.95-0.35Q177.70 0 176.26 0.21Q174.82 0.41 173.22 0.41L173.22 0.41Q170.53 0.41 168.49-0.18Q166.45-0.76 165.08-1.80Q163.71-2.83 163.02-4.23Q162.32-5.63 162.32-7.27ZM168.42-7.46L168.42-7.46Q168.42-6.89 168.71-6.38Q169.00-5.86 169.65-5.46Q170.29-5.06 171.30-4.81Q172.30-4.57 173.73-4.57L173.73-4.57Q175.25-4.57 176.68-4.84Q178.11-5.12 179.34-5.57Q180.57-6.02 181.56-6.60Q182.56-7.19 183.22-7.81L183.22-7.81L183.22-8.83Q181.89-9.20 180.60-9.45Q179.30-9.71 178.12-9.85Q176.93-10 175.89-10.06Q174.84-10.12 174.06-10.12L174.06-10.12Q172.44-10.12 171.37-9.90Q170.29-9.69 169.63-9.33Q168.96-8.96 168.69-8.48Q168.42-7.99 168.42-7.46Z"/></g>
</svg>
</g></g><g filter="url(#6fef1a27-fb72-463e-8552-d52f6c12b13bikYEXSHZT)"><g opacity="1" transform="rotate(0 222.1636 207.578)">
<svg width="877.6993" height="189.8356" x="222.1636" y="207.578" version="1.1" preserveAspectRatio="none" viewBox="4.3359 -30.5273 184.66799999999998 39.9414">
  <g transform="matrix(1 0 0 1 0 0)" class="icon36fef1a27-fb72-463e-8552-d52f6c12b13b"><path id="id-6fef1a27-fb72-463e-8552-d52f6c12b13bBEGfasMba6" d="M4.34 0L4.34-30.53L30.33-30.53L30.33-25.10L10.53-25.10L10.53-19.00L28.07-19.00L28.07-13.91L10.53-13.91L10.53-5.41L30.74-5.41L30.74 0L4.34 0Z M37.31-2.70L39.81-7.07Q42.16-5.66 44.97-5Q47.78-4.34 50.73-4.34L50.73-4.34Q52.72-4.34 54.05-4.61Q55.38-4.88 56.18-5.31Q56.98-5.74 57.31-6.29Q57.64-6.84 57.64-7.40L57.64-7.40Q57.64-8.22 56.93-8.81Q56.22-9.39 54.58-9.39L54.58-9.39Q53.82-9.39 52.94-9.30Q52.06-9.20 51.09-9.09Q50.13-8.98 49.08-8.89Q48.04-8.79 46.96-8.79L46.96-8.79Q44.62-8.79 42.97-9.30Q41.32-9.80 40.28-10.68Q39.25-11.56 38.78-12.76Q38.31-13.96 38.31-15.35L38.31-15.35Q38.31-17.11 39.13-18.59Q39.95-20.08 41.47-21.16Q43.00-22.25 45.15-22.85Q47.31-23.46 49.97-23.46L49.97-23.46Q51.36-23.46 52.87-23.29Q54.38-23.13 55.85-22.85Q57.31-22.58 58.66-22.22Q60.01-21.86 61.04-21.45L61.04-21.45L59.23-16.95Q57.02-17.77 54.82-18.25Q52.63-18.73 50.30-18.73L50.30-18.73Q48.68-18.73 47.56-18.49Q46.43-18.24 45.73-17.84Q45.03-17.44 44.71-16.92Q44.38-16.41 44.38-15.84L44.38-15.84Q44.38-15.43 44.55-15.10Q44.71-14.77 45.10-14.52Q45.48-14.28 46.09-14.15Q46.71-14.02 47.61-14.02L47.61-14.02Q48.43-14.02 49.34-14.12Q50.26-14.22 51.26-14.33Q52.25-14.43 53.32-14.53Q54.38-14.63 55.50-14.63L55.50-14.63Q57.57-14.63 59.12-14.14Q60.67-13.65 61.69-12.77Q62.70-11.89 63.21-10.70Q63.72-9.51 63.72-8.11L63.72-8.11Q63.72-6.29 62.88-4.73Q62.04-3.16 60.38-2.02Q58.72-0.88 56.25-0.23Q53.78 0.41 50.54 0.41L50.54 0.41Q48.54 0.41 46.69 0.17Q44.83-0.08 43.15-0.50Q41.47-0.92 40.00-1.48Q38.52-2.05 37.31-2.70L37.31-2.70Z M74.39 0L74.39-18.71L68.82-18.71L68.82-23.05L74.39-23.05L74.39-30.21L80.17-30.21L80.17-23.05L85.74-23.05L85.74-18.71L80.17-18.71L80.17 0L74.39 0Z M91.49-11.52L91.49-11.52Q91.49-14.00 92.49-16.17Q93.50-18.34 95.37-19.96Q97.23-21.58 99.88-22.52Q102.52-23.46 105.82-23.46L105.82-23.46Q109.13-23.46 111.77-22.52Q114.42-21.58 116.28-19.96Q118.15-18.34 119.15-16.17Q120.16-14.00 120.16-11.52L120.16-11.52Q120.16-9.04 119.15-6.88Q118.15-4.71 116.28-3.09Q114.42-1.46 111.77-0.53Q109.13 0.41 105.82 0.41L105.82 0.41Q102.52 0.41 99.88-0.53Q97.23-1.46 95.37-3.09Q93.50-4.71 92.49-6.88Q91.49-9.04 91.49-11.52ZM97.56-11.52L97.56-11.52Q97.56-10.14 98.12-8.90Q98.68-7.66 99.74-6.71Q100.80-5.76 102.34-5.21Q103.87-4.65 105.82-4.65L105.82-4.65Q107.78-4.65 109.31-5.21Q110.84-5.76 111.91-6.71Q112.97-7.66 113.53-8.90Q114.09-10.14 114.09-11.52L114.09-11.52Q114.09-12.91 113.53-14.16Q112.97-15.41 111.91-16.36Q110.84-17.30 109.31-17.86Q107.78-18.42 105.82-18.42L105.82-18.42Q103.87-18.42 102.34-17.86Q100.80-17.30 99.74-16.36Q98.68-15.41 98.12-14.16Q97.56-12.91 97.56-11.52Z M133.63-1.66L133.63 9.41L127.84 9.41L127.84-23.05L133.63-23.05L133.63-20.88Q134.39-21.41 135.42-21.88Q136.46-22.34 137.65-22.70Q138.84-23.05 140.11-23.25Q141.38-23.46 142.65-23.46L142.65-23.46Q145.58-23.46 148.03-22.60Q150.48-21.74 152.24-20.18Q154.00-18.61 154.98-16.44Q155.97-14.26 155.97-11.62L155.97-11.62Q155.97-8.87 154.93-6.65Q153.90-4.43 152.07-2.86Q150.25-1.29 147.74-0.44Q145.23 0.41 142.30 0.41L142.30 0.41Q141.05 0.41 139.83 0.25Q138.61 0.10 137.48-0.18Q136.36-0.45 135.37-0.83Q134.39-1.21 133.63-1.66L133.63-1.66ZM133.63-15.23L133.63-7.25Q134.50-6.54 135.48-6.05Q136.46-5.57 137.47-5.25Q138.49-4.94 139.52-4.79Q140.56-4.65 141.54-4.65L141.54-4.65Q143.53-4.65 145.08-5.19Q146.63-5.72 147.70-6.66Q148.76-7.60 149.33-8.87Q149.89-10.14 149.89-11.62L149.89-11.62Q149.89-13.01 149.34-14.24Q148.78-15.47 147.74-16.40Q146.69-17.32 145.22-17.86Q143.74-18.40 141.91-18.40L141.91-18.40Q140.73-18.40 139.56-18.17Q138.39-17.95 137.31-17.54Q136.22-17.13 135.28-16.54Q134.33-15.96 133.63-15.23L133.63-15.23Z M162.32-7.27L162.32-7.27Q162.32-8.93 163.05-10.29Q163.77-11.66 165.21-12.65Q166.66-13.63 168.82-14.17Q170.98-14.71 173.85-14.71L173.85-14.71Q175.98-14.71 178.33-14.39Q180.68-14.08 183.18-13.44L183.18-13.44Q183.09-14.53 182.52-15.46Q181.95-16.39 180.95-17.06Q179.94-17.73 178.53-18.11Q177.11-18.48 175.31-18.48L175.31-18.48Q174.34-18.48 173.16-18.36Q171.99-18.24 170.74-18.01Q169.49-17.77 168.27-17.42Q167.05-17.07 166.00-16.58L166.00-16.58L164.24-21.33Q165.55-21.80 167.04-22.19Q168.54-22.58 170.10-22.86Q171.66-23.14 173.22-23.30Q174.79-23.46 176.25-23.46L176.25-23.46Q182.71-23.46 185.86-20.16Q189.00-16.86 189.00-10.04L189.00-10.04L189.00 0L183.22 0L183.22-2.17Q182.32-1.64 181.26-1.17Q180.20-0.70 178.95-0.35Q177.70 0 176.26 0.21Q174.82 0.41 173.22 0.41L173.22 0.41Q170.53 0.41 168.49-0.18Q166.45-0.76 165.08-1.80Q163.71-2.83 163.02-4.23Q162.32-5.63 162.32-7.27ZM168.42-7.46L168.42-7.46Q168.42-6.89 168.71-6.38Q169.00-5.86 169.65-5.46Q170.29-5.06 171.30-4.81Q172.30-4.57 173.73-4.57L173.73-4.57Q175.25-4.57 176.68-4.84Q178.11-5.12 179.34-5.57Q180.57-6.02 181.56-6.60Q182.56-7.19 183.22-7.81L183.22-7.81L183.22-8.83Q181.89-9.20 180.60-9.45Q179.30-9.71 178.12-9.85Q176.93-10 175.89-10.06Q174.84-10.12 174.06-10.12L174.06-10.12Q172.44-10.12 171.37-9.90Q170.29-9.69 169.63-9.33Q168.96-8.96 168.69-8.48Q168.42-7.99 168.42-7.46Z"/></g>
</svg>
</g></g><g filter="url(#6fef1a27-fb72-463e-8552-d52f6c12b13btUk6sjh6M)"><g opacity="1" transform="rotate(0 222.1636 198.0863)">
<svg width="877.6993" height="189.8356" x="222.1636" y="198.0863" version="1.1" preserveAspectRatio="none" viewBox="4.3359 -30.5273 184.66799999999998 39.9414">
  <g transform="matrix(1 0 0 1 0 0)" class="companyName6fef1a27-fb72-463e-8552-d52f6c12b13b"><path id="id-6fef1a27-fb72-463e-8552-d52f6c12b13bD6z1nYkh6" d="M4.34 0L4.34-30.53L30.33-30.53L30.33-25.10L10.53-25.10L10.53-19.00L28.07-19.00L28.07-13.91L10.53-13.91L10.53-5.41L30.74-5.41L30.74 0L4.34 0Z M37.31-2.70L39.81-7.07Q42.16-5.66 44.97-5Q47.78-4.34 50.73-4.34L50.73-4.34Q52.72-4.34 54.05-4.61Q55.38-4.88 56.18-5.31Q56.98-5.74 57.31-6.29Q57.64-6.84 57.64-7.40L57.64-7.40Q57.64-8.22 56.93-8.81Q56.22-9.39 54.58-9.39L54.58-9.39Q53.82-9.39 52.94-9.30Q52.06-9.20 51.09-9.09Q50.13-8.98 49.08-8.89Q48.04-8.79 46.96-8.79L46.96-8.79Q44.62-8.79 42.97-9.30Q41.32-9.80 40.28-10.68Q39.25-11.56 38.78-12.76Q38.31-13.96 38.31-15.35L38.31-15.35Q38.31-17.11 39.13-18.59Q39.95-20.08 41.47-21.16Q43.00-22.25 45.15-22.85Q47.31-23.46 49.97-23.46L49.97-23.46Q51.36-23.46 52.87-23.29Q54.38-23.13 55.85-22.85Q57.31-22.58 58.66-22.22Q60.01-21.86 61.04-21.45L61.04-21.45L59.23-16.95Q57.02-17.77 54.82-18.25Q52.63-18.73 50.30-18.73L50.30-18.73Q48.68-18.73 47.56-18.49Q46.43-18.24 45.73-17.84Q45.03-17.44 44.71-16.92Q44.38-16.41 44.38-15.84L44.38-15.84Q44.38-15.43 44.55-15.10Q44.71-14.77 45.10-14.52Q45.48-14.28 46.09-14.15Q46.71-14.02 47.61-14.02L47.61-14.02Q48.43-14.02 49.34-14.12Q50.26-14.22 51.26-14.33Q52.25-14.43 53.32-14.53Q54.38-14.63 55.50-14.63L55.50-14.63Q57.57-14.63 59.12-14.14Q60.67-13.65 61.69-12.77Q62.70-11.89 63.21-10.70Q63.72-9.51 63.72-8.11L63.72-8.11Q63.72-6.29 62.88-4.73Q62.04-3.16 60.38-2.02Q58.72-0.88 56.25-0.23Q53.78 0.41 50.54 0.41L50.54 0.41Q48.54 0.41 46.69 0.17Q44.83-0.08 43.15-0.50Q41.47-0.92 40.00-1.48Q38.52-2.05 37.31-2.70L37.31-2.70Z M74.39 0L74.39-18.71L68.82-18.71L68.82-23.05L74.39-23.05L74.39-30.21L80.17-30.21L80.17-23.05L85.74-23.05L85.74-18.71L80.17-18.71L80.17 0L74.39 0Z M91.49-11.52L91.49-11.52Q91.49-14.00 92.49-16.17Q93.50-18.34 95.37-19.96Q97.23-21.58 99.88-22.52Q102.52-23.46 105.82-23.46L105.82-23.46Q109.13-23.46 111.77-22.52Q114.42-21.58 116.28-19.96Q118.15-18.34 119.15-16.17Q120.16-14.00 120.16-11.52L120.16-11.52Q120.16-9.04 119.15-6.88Q118.15-4.71 116.28-3.09Q114.42-1.46 111.77-0.53Q109.13 0.41 105.82 0.41L105.82 0.41Q102.52 0.41 99.88-0.53Q97.23-1.46 95.37-3.09Q93.50-4.71 92.49-6.88Q91.49-9.04 91.49-11.52ZM97.56-11.52L97.56-11.52Q97.56-10.14 98.12-8.90Q98.68-7.66 99.74-6.71Q100.80-5.76 102.34-5.21Q103.87-4.65 105.82-4.65L105.82-4.65Q107.78-4.65 109.31-5.21Q110.84-5.76 111.91-6.71Q112.97-7.66 113.53-8.90Q114.09-10.14 114.09-11.52L114.09-11.52Q114.09-12.91 113.53-14.16Q112.97-15.41 111.91-16.36Q110.84-17.30 109.31-17.86Q107.78-18.42 105.82-18.42L105.82-18.42Q103.87-18.42 102.34-17.86Q100.80-17.30 99.74-16.36Q98.68-15.41 98.12-14.16Q97.56-12.91 97.56-11.52Z M133.63-1.66L133.63 9.41L127.84 9.41L127.84-23.05L133.63-23.05L133.63-20.88Q134.39-21.41 135.42-21.88Q136.46-22.34 137.65-22.70Q138.84-23.05 140.11-23.25Q141.38-23.46 142.65-23.46L142.65-23.46Q145.58-23.46 148.03-22.60Q150.48-21.74 152.24-20.18Q154.00-18.61 154.98-16.44Q155.97-14.26 155.97-11.62L155.97-11.62Q155.97-8.87 154.93-6.65Q153.90-4.43 152.07-2.86Q150.25-1.29 147.74-0.44Q145.23 0.41 142.30 0.41L142.30 0.41Q141.05 0.41 139.83 0.25Q138.61 0.10 137.48-0.18Q136.36-0.45 135.37-0.83Q134.39-1.21 133.63-1.66L133.63-1.66ZM133.63-15.23L133.63-7.25Q134.50-6.54 135.48-6.05Q136.46-5.57 137.47-5.25Q138.49-4.94 139.52-4.79Q140.56-4.65 141.54-4.65L141.54-4.65Q143.53-4.65 145.08-5.19Q146.63-5.72 147.70-6.66Q148.76-7.60 149.33-8.87Q149.89-10.14 149.89-11.62L149.89-11.62Q149.89-13.01 149.34-14.24Q148.78-15.47 147.74-16.40Q146.69-17.32 145.22-17.86Q143.74-18.40 141.91-18.40L141.91-18.40Q140.73-18.40 139.56-18.17Q138.39-17.95 137.31-17.54Q136.22-17.13 135.28-16.54Q134.33-15.96 133.63-15.23L133.63-15.23Z M162.32-7.27L162.32-7.27Q162.32-8.93 163.05-10.29Q163.77-11.66 165.21-12.65Q166.66-13.63 168.82-14.17Q170.98-14.71 173.85-14.71L173.85-14.71Q175.98-14.71 178.33-14.39Q180.68-14.08 183.18-13.44L183.18-13.44Q183.09-14.53 182.52-15.46Q181.95-16.39 180.95-17.06Q179.94-17.73 178.53-18.11Q177.11-18.48 175.31-18.48L175.31-18.48Q174.34-18.48 173.16-18.36Q171.99-18.24 170.74-18.01Q169.49-17.77 168.27-17.42Q167.05-17.07 166.00-16.58L166.00-16.58L164.24-21.33Q165.55-21.80 167.04-22.19Q168.54-22.58 170.10-22.86Q171.66-23.14 173.22-23.30Q174.79-23.46 176.25-23.46L176.25-23.46Q182.71-23.46 185.86-20.16Q189.00-16.86 189.00-10.04L189.00-10.04L189.00 0L183.22 0L183.22-2.17Q182.32-1.64 181.26-1.17Q180.20-0.70 178.95-0.35Q177.70 0 176.26 0.21Q174.82 0.41 173.22 0.41L173.22 0.41Q170.53 0.41 168.49-0.18Q166.45-0.76 165.08-1.80Q163.71-2.83 163.02-4.23Q162.32-5.63 162.32-7.27ZM168.42-7.46L168.42-7.46Q168.42-6.89 168.71-6.38Q169.00-5.86 169.65-5.46Q170.29-5.06 171.30-4.81Q172.30-4.57 173.73-4.57L173.73-4.57Q175.25-4.57 176.68-4.84Q178.11-5.12 179.34-5.57Q180.57-6.02 181.56-6.60Q182.56-7.19 183.22-7.81L183.22-7.81L183.22-8.83Q181.89-9.20 180.60-9.45Q179.30-9.71 178.12-9.85Q176.93-10 175.89-10.06Q174.84-10.12 174.06-10.12L174.06-10.12Q172.44-10.12 171.37-9.90Q170.29-9.69 169.63-9.33Q168.96-8.96 168.69-8.48Q168.42-7.99 168.42-7.46Z"/></g>
</svg>
</g></g></svg>